<svg width="106" height="126" viewBox="0 0 106 126" fill="none" xmlns="http://www.w3.org/2000/svg">
<path d="M53 65.1887C61.3547 65.1887 80.9976 55.5913 80.9976 32.5942C80.9976 29.3864 80.9158 26.2876 80.6388 23.3598C80.1841 17.5974 78.9478 12.4908 75.8691 8.57687C71.9208 3.25145 65.012 0 53 0C40.99 0 34.0819 3.25046 30.1336 8.5739C27.0532 12.4881 25.8159 17.5967 25.3612 23.3608C25.0845 26.2883 25.0024 29.3867 25.0024 32.5942C25.0024 55.5913 44.6453 65.1887 53 65.1887ZM42.6222 10.7788C43.2324 9.71204 44.4012 9.04859 45.6721 9.04727C47.1377 9.04727 48.392 9.91501 48.9059 11.1378H57.0902C57.2627 10.7252 57.521 10.3464 57.8594 10.0228C58.5149 9.3947 59.3887 9.04793 60.3175 9.04694C61.5926 9.04661 62.7614 9.70642 63.3733 10.7692C63.4093 10.8313 63.4079 10.906 63.3698 10.9672C63.3324 11.0284 63.2635 11.0657 63.1897 11.0657L60.0858 11.0707C60.0311 11.1956 59.9268 11.5424 59.9282 12.3688C59.9296 13.1952 60.0352 13.5416 60.0906 13.6663L63.1946 13.6616C63.269 13.662 63.3366 13.6993 63.3747 13.7602C63.4131 13.821 63.4138 13.8963 63.3788 13.9585C62.7679 15.0246 61.5991 15.6887 60.3282 15.69L60.3234 15.6893C58.8616 15.6893 57.6083 14.8223 57.0944 13.5988H48.9101C48.7376 14.0114 48.48 14.3905 48.1416 14.7138C47.4861 15.3419 46.6123 15.689 45.6829 15.6907C45.6829 15.6903 45.6773 15.6907 45.6773 15.6907C44.4084 15.6907 43.239 15.0309 42.6267 13.9681C42.5907 13.9059 42.5928 13.8306 42.6302 13.7697C42.6672 13.7089 42.7365 13.6709 42.8106 13.6709L45.9138 13.6663C45.9686 13.5416 46.0735 13.1949 46.0714 12.3685C46.07 11.5417 45.9644 11.1953 45.909 11.0707L42.805 11.0756V11.076C42.7313 11.0753 42.6631 11.0379 42.625 10.9771C42.5879 10.9163 42.5865 10.8416 42.6222 10.7788ZM29.1678 27.6079C29.4902 28.2816 30.8605 30.8706 32.9817 31.1132C35.42 31.3922 39.4673 22.8702 53 22.8497C66.5323 22.8706 70.5799 31.3922 73.0183 31.1132C75.1394 30.8703 76.5098 28.2813 76.8322 27.6079C76.898 29.2581 76.9219 30.9284 76.9219 32.5942C76.9219 43.8354 71.7221 50.8004 67.3596 54.6638C61.863 59.5317 55.7608 61.2986 53 61.2986C50.2392 61.2986 44.1366 59.5317 38.6403 54.6638C34.2779 50.8004 29.0781 43.8354 29.0781 32.5942C29.0781 30.9284 29.102 29.2581 29.1678 27.6079Z" fill="black"/>
<path d="M104.978 98.617C103.549 90.1333 100.607 79.2051 94.7041 75.321C90.6752 72.6695 76.6168 65.4998 70.6136 62.4385L70.5034 62.3826C69.8171 62.0325 68.979 62.1026 68.3667 62.5614C65.2209 64.9187 61.7751 66.5074 58.125 67.2829C57.4802 67.4201 56.951 67.8574 56.7166 68.4468L52.9997 77.7989L49.2827 68.4468C49.0483 67.8574 48.5191 67.4198 47.8743 67.2829C44.2242 66.5074 40.7785 64.9187 37.6326 62.5614C37.0203 62.1026 36.1823 62.0322 35.4959 62.3826C29.5623 65.4093 15.3276 72.7273 11.3129 75.3097C4.51833 79.6795 1.5477 95.4918 1.02131 98.6173C0.969017 98.9274 0.999147 99.2444 1.10893 99.5406C1.30771 100.076 5.51153 110.44 31.7842 114.221C34.0805 118.053 37.5107 121.239 41.6124 123.311C45.0969 125.071 49.0441 126.001 53.0281 126.001C54.5882 126.001 56.15 125.858 57.671 125.575C62.9287 124.599 67.7842 121.932 71.3432 118.065C72.4369 116.877 73.3944 115.587 74.2082 114.222C100.487 110.441 104.692 100.076 104.89 99.5406C105.001 99.2441 105.031 98.9267 104.978 98.617ZM73.8962 103.81C73.6399 108.248 71.7965 112.529 68.7231 115.867C65.6846 119.169 61.5258 121.467 57.0051 122.307C55.6926 122.551 54.36 122.671 53.0284 122.671C49.6374 122.671 46.255 121.889 43.2442 120.368C39.2062 118.328 35.9191 115.025 33.9985 111.067C32.0023 106.953 31.5428 102.22 32.7022 97.8233C33.8222 93.5719 36.4403 89.739 40.0401 87.021C43.7131 84.2479 48.3165 82.7194 52.9993 82.7194C55.0928 82.7194 57.1841 83.0179 59.1833 83.6096C63.5603 84.9038 67.4255 87.5946 70.0764 91.1594C72.8022 94.8251 74.1553 99.3221 73.8962 103.81Z" fill="black"/>
<path d="M56.2827 102.696C58.2393 103.066 60.1845 103.622 62.0089 104.394C63.7716 105.141 65.3511 106.194 66.9901 107.148C67.1027 107.215 67.2166 107.279 67.3306 107.343C67.8497 105.884 68.1354 104.323 68.1354 102.696C68.1354 101.07 67.8497 99.5084 67.3306 98.0496C65.6513 99.0062 64.0548 100.096 62.2748 100.884C60.3781 101.723 58.3321 102.309 56.2827 102.696Z" fill="black"/>
<path d="M66.9902 107.148C66.6265 106.937 67.1858 107.263 66.9902 107.148V107.148Z" fill="black"/>
<path d="M43.9912 104.394C45.8158 103.622 47.7604 103.066 49.7174 102.696C47.6378 102.304 45.5579 101.707 43.6365 100.845C41.8918 100.061 40.321 98.9904 38.6694 98.0493C38.1503 99.5081 37.8646 101.07 37.8646 102.696C37.8646 104.323 38.1503 105.885 38.6694 107.344C38.783 107.279 38.8973 107.215 39.0095 107.148C40.6489 106.194 42.2295 105.141 43.9912 104.394Z" fill="black"/>
<path d="M39.0095 107.148C38.8145 107.263 39.3731 106.937 39.0095 107.148V107.148Z" fill="black"/>
<path d="M55.7819 88.4971C55.8318 90.3872 56.0489 92.2741 55.8851 94.1643C55.7074 96.2102 55.2198 98.2623 54.5279 100.204C55.9547 98.6802 57.5851 97.2736 59.3599 96.1249C61.0104 95.0572 62.8466 94.3101 64.6023 93.4225C62.3926 90.9059 59.3014 89.1215 55.7819 88.4971Z" fill="black"/>
<path d="M51.4721 100.203C50.7798 98.2622 50.2926 96.21 50.1146 94.1638C49.9515 92.2736 50.1686 90.3868 50.2181 88.4966C46.6986 89.121 43.6078 90.9054 41.3977 93.4217C43.1829 94.3245 45.0495 95.0818 46.7215 96.177C48.4623 97.3181 50.0654 98.7018 51.4721 100.203Z" fill="black"/>
<path d="M50.1146 111.229C50.2929 109.184 50.7778 107.13 51.4721 105.19C50.0439 106.713 48.4142 108.12 46.6394 109.268C44.9896 110.337 43.1541 111.084 41.3977 111.971C43.6075 114.487 46.6986 116.271 50.2178 116.896C50.1683 115.006 49.9515 113.119 50.1146 111.229Z" fill="black"/>
<path d="M54.5283 105.19C55.2226 107.13 55.7078 109.184 55.8854 111.229C56.0492 113.119 55.8325 115.006 55.7822 116.896C59.3014 116.272 62.3926 114.487 64.6024 111.971C62.8178 111.068 60.9516 110.311 59.28 109.216C57.5377 108.075 55.9357 106.691 54.5283 105.19Z" fill="black"/>
</svg>
