<svg width="114" height="126" viewBox="0 0 114 126" fill="none" xmlns="http://www.w3.org/2000/svg">
<path d="M113.132 108.935L97.4766 73.7837C103.01 66.1821 106.259 56.9571 106.259 47.0201C106.259 21.0931 84.1614 0 56.9999 0C29.8389 0 7.74128 21.0931 7.74128 47.0198C7.74128 56.9571 10.9902 66.1816 16.5234 73.7832L0.868009 108.935C0.118549 110.618 0.248486 112.233 1.22482 113.367C2.20115 114.5 3.83646 114.934 5.71049 114.559L17.6668 112.159C19.0801 111.875 21.0658 112.681 21.8328 113.85L28.3185 123.733C29.2725 125.186 30.6177 126 32.046 126C32.1404 126 32.2352 125.996 32.3304 125.989C33.8633 125.874 35.1717 124.843 35.9214 123.16L49.1575 93.4411C51.7122 93.8329 54.331 94.0394 56.9999 94.0394C59.6688 94.0394 62.2876 93.8329 64.8423 93.4411L78.0786 123.16C78.8281 124.842 80.137 125.874 81.6699 125.989C81.7651 125.996 81.8599 126 81.9543 126C83.382 126 84.7278 125.186 85.6815 123.733L92.167 113.85C92.9342 112.681 94.9196 111.874 96.3335 112.159L108.289 114.558C110.164 114.934 111.799 114.5 112.775 113.366C113.751 112.233 113.881 110.618 113.132 108.935ZM12.7054 109.063L4.84734 110.64C4.77824 110.654 4.71585 110.664 4.65991 110.671C4.67847 110.62 4.70064 110.564 4.72874 110.502L19.4596 77.4259C21.0379 79.1987 22.7508 80.8591 24.5836 82.392L12.7054 109.063ZM17.6807 108.127L27.9844 84.9913C30.0358 86.4235 32.2058 87.7096 34.4797 88.8301L24.6813 110.831C22.9844 109.016 20.2106 107.939 17.6807 108.127ZM32.0607 121.593C32.0331 121.655 32.0063 121.71 31.9805 121.758C31.9473 121.715 31.9117 121.665 31.8743 121.607L27.4461 114.859L38.2894 90.5124C40.4432 91.3599 42.6725 92.066 44.9657 92.6179L32.0607 121.593ZM56.9999 90.0352C32.1517 90.0352 11.9364 70.7388 11.9364 47.0201C11.9364 23.3013 32.152 4.00443 56.9999 4.00443C81.8478 4.00443 102.064 23.3011 102.064 47.0201C102.064 70.739 81.8483 90.0352 56.9999 90.0352ZM82.1257 121.607C82.0883 121.665 82.0528 121.714 82.0195 121.758C81.9937 121.71 81.9669 121.655 81.9393 121.593L69.0345 92.6175C71.3278 92.066 73.5571 91.3594 75.7108 90.5119L86.5542 114.859L82.1257 121.607ZM89.3187 110.831L79.5203 88.8301C81.7942 87.7096 83.9639 86.4235 86.0153 84.9915L96.3196 108.127C93.7891 107.938 91.0159 109.016 89.3187 110.831ZM109.152 110.64L101.294 109.063L89.4156 82.3923C91.2492 80.8596 92.9616 79.199 94.5399 77.4261L109.271 110.502C109.299 110.564 109.321 110.62 109.339 110.671C109.284 110.664 109.222 110.654 109.152 110.64Z" fill="black"/>
<path d="M56.9999 21.6804C42.3623 21.6804 30.4537 33.0477 30.4537 47.0199C30.4537 60.9921 42.3623 72.3591 56.9999 72.3591C71.6377 72.3591 83.5462 60.9921 83.5462 47.0199C83.5462 33.0477 71.6377 21.6804 56.9999 21.6804ZM56.9999 68.355C44.6754 68.355 34.6488 58.7841 34.6488 47.0202C34.6488 35.2559 44.6754 25.6851 56.9999 25.6851C69.3243 25.6851 79.3514 35.2559 79.3514 47.0202C79.3514 58.7839 69.3246 68.355 56.9999 68.355Z" fill="black"/>
<path d="M56.9999 11.2881C36.3589 11.2881 19.5666 27.3171 19.5666 47.0198C19.5666 66.7223 36.3589 82.7514 56.9999 82.7514C77.6408 82.7514 94.4337 66.7223 94.4337 47.0198C94.4337 27.3171 77.6408 11.2881 56.9999 11.2881ZM56.9999 78.7469C38.672 78.7469 23.7614 64.5144 23.7614 47.0196C23.7614 29.5251 38.672 15.292 56.9999 15.292C75.3277 15.292 90.2385 29.5248 90.2385 47.0196C90.2385 64.5144 75.3277 78.7469 56.9999 78.7469Z" fill="black"/>
</svg>
