<svg width="10" height="20" viewBox="0 0 10 20" fill="none" xmlns="http://www.w3.org/2000/svg">
<path d="M8.8373 0.650818H1.1627C0.523313 0.650818 0 1.23663 0 1.95361V18.6359C0 19.3529 0.523313 19.9392 1.1627 19.9392H8.8373C9.47669 19.9392 10 19.354 10 18.6364V1.95361C10 1.23663 9.47669 0.650818 8.8373 0.650818ZM3.77238 1.58989H6.22762C6.30533 1.58989 6.36829 1.66043 6.36829 1.74805C6.36829 1.83513 6.30533 1.90567 6.22762 1.90567H3.77238C3.69467 1.90567 3.63171 1.83513 3.63171 1.74805C3.63171 1.66043 3.69467 1.58989 3.77238 1.58989ZM5 19.2878C4.67883 19.2878 4.41865 18.9963 4.41865 18.6359C4.41865 18.2755 4.67883 17.9845 5 17.9845C5.32117 17.9845 5.58135 18.2755 5.58135 18.6359C5.58135 18.9963 5.32117 19.2878 5 19.2878ZM9.19093 17.5282H0.809069V2.71688H9.19093V17.5282Z" fill="#005FA3"/>
</svg>
