<svg width="132" height="126" viewBox="0 0 132 126" fill="none" xmlns="http://www.w3.org/2000/svg">
<path d="M120.038 35.7983L116.108 37.3632L119.316 44.7098H105.299V48.7743H121.09L126.412 60.9679L121.09 73.1614H88.6156C82.9184 68.1336 75.3305 65.0324 66.9762 65.0324C58.6218 65.0324 51.034 68.1336 45.3367 73.1614H9.49229V77.2259H41.4874C37.4593 82.3269 35.0407 88.6492 35.0407 95.5162C35.0407 112.325 49.3669 126 66.9762 126C84.5854 126 98.9116 112.325 98.9116 95.5162C98.9116 88.6492 96.4931 82.3269 92.4649 77.2259H119.316L116.11 84.5725L120.04 86.1374L131.024 60.9679L120.038 35.7983ZM94.6536 95.5162C94.6536 110.083 82.2371 121.936 66.9762 121.936C51.7153 121.936 39.2987 110.083 39.2987 95.5162C39.2987 80.949 51.7153 69.0969 66.9762 69.0969C82.2371 69.0969 94.6536 80.949 94.6536 95.5162Z" fill="black"/>
<path d="M18.0297 64.199L55.5454 44.8011L60.2633 49.3046L51.513 50.3491C48.1917 50.7454 45.6859 53.4544 45.6859 56.6491C45.6859 60.1507 48.6708 63 52.3391 63C53.6527 63 54.9812 62.9309 56.2884 62.7906L75.0686 60.799L77.7938 50.3898L68.8093 38.3832L80.3401 36.8102L84.5322 50.8064H96.7826C100.304 50.8064 103.17 48.071 103.17 44.7096C103.17 41.3483 100.304 38.6129 96.7826 38.6129H94.2683L92.3755 29.5795L84.0319 20.0238C81.9454 17.6298 78.8775 16.258 75.6158 16.258C75.107 16.258 74.6003 16.3007 74.0978 16.3678L65.1473 12.0959L46.9015 15.5792C43.7293 16.1869 41.4278 18.8654 41.4278 21.9524C41.4278 25.5353 44.4829 28.4516 48.2364 28.4516H49.4074L48.8049 28.7645L10.7293 51.7209C8.62152 52.9911 7.36326 55.1717 7.36326 57.5515V58.1347C7.36326 61.9391 10.6037 65.0322 14.5892 65.0322C15.7857 65.0322 16.9758 64.7436 18.0297 64.199ZM73.1866 51.225L71.6558 57.0719L55.82 58.7505C54.6682 58.8745 53.4973 58.9354 52.3391 58.9354C51.0191 58.9354 49.9439 57.9091 49.9439 56.6491C49.9439 55.5009 50.8466 54.5254 52.041 54.3832L69.4288 52.3082L59.4501 42.783L64.8003 40.0171L73.1866 51.225ZM48.2364 24.387C46.8291 24.387 45.6859 23.2957 45.6859 21.9524C45.6859 20.7981 46.5481 19.7921 47.7361 19.5645L64.547 16.3556L68.7667 18.3695L60.1739 22.8446L49.9737 24.3566C49.8417 24.3769 49.714 24.387 49.582 24.387H48.2364ZM11.6213 58.1347V57.5515C11.6213 56.576 12.1387 55.6798 13.0031 55.1575L50.9616 32.2661L72.4052 21.1029C73.3867 20.5928 74.4959 20.3225 75.6158 20.3225C77.6128 20.3225 79.4864 21.1619 80.7617 22.6251L88.4155 31.3902L90.7809 42.6774H96.7826C97.9579 42.6774 98.9117 43.5878 98.9117 44.7096C98.9117 45.8314 97.9579 46.7419 96.7826 46.7419H87.7428L83.4166 32.2864L66.2991 34.6195L16.0007 60.6263C15.5686 60.8478 15.0789 60.9677 14.5892 60.9677C12.952 60.9677 11.6213 59.6975 11.6213 58.1347Z" fill="black"/>
<path d="M94.6536 24.3871C101.699 24.3871 107.428 18.9183 107.428 12.1935C107.428 5.46881 101.699 0 94.6536 0C87.6086 0 81.8794 5.46881 81.8794 12.1935C81.8794 18.9183 87.6086 24.3871 94.6536 24.3871ZM94.6536 4.06452C99.3502 4.06452 103.17 7.71039 103.17 12.1935C103.17 16.6767 99.3502 20.3226 94.6536 20.3226C89.9569 20.3226 86.1374 16.6767 86.1374 12.1935C86.1374 7.71039 89.9569 4.06452 94.6536 4.06452Z" fill="black"/>
<path d="M5.23423 73.1614H0.976166V77.2259H5.23423V73.1614Z" fill="black"/>
<path d="M5.23423 30.4839H0.976166V34.5484H5.23423V30.4839Z" fill="black"/>
<path d="M30.7826 30.4839H9.49229V34.5484H30.7826V30.4839Z" fill="black"/>
<path d="M9.49229 22.3547H5.23423V26.4193H9.49229V22.3547Z" fill="black"/>
<path d="M37.1697 22.3547H13.7504V26.4193H37.1697V22.3547Z" fill="black"/>
<path d="M13.7504 14.2258H9.49229V18.2903H13.7504V14.2258Z" fill="black"/>
<path d="M39.2987 14.2258H18.0084V18.2903H39.2987V14.2258Z" fill="black"/>
<path d="M66.9762 73.1614C54.0636 73.1614 43.5568 83.1906 43.5568 95.5162V97.5485H45.6858H47.8149H49.9439V93.484H47.9405C48.1577 91.6204 48.6707 89.8442 49.4287 88.192L51.1617 89.1471L53.2907 85.6272L51.5747 84.6802C52.7159 83.2048 54.0806 81.9041 55.6242 80.8149L56.6163 82.4529L60.3038 80.4206L59.3031 78.7663C61.034 78.0408 62.8948 77.5531 64.8471 77.3458V79.2582H69.1052V77.3458C71.0575 77.5531 72.9183 78.0408 74.6492 78.7663L73.6486 80.4206L77.336 82.4529L78.3282 80.8149C79.8738 81.9041 81.2364 83.2068 82.3776 84.6802L80.6616 85.6272L82.7906 89.1471L84.5237 88.192C85.2837 89.8442 85.7947 91.6204 86.0118 93.484H84.0084V97.5485H86.1375H88.2665H90.3955V95.5162C90.3955 83.1906 79.8887 73.1614 66.9762 73.1614Z" fill="black"/>
<path d="M65.2407 104.499L68.7036 106.86L79.3472 92.636L75.8843 90.2751L65.2407 104.499Z" fill="black"/>
<path d="M69.1052 111.774H64.8471V115.839H69.1052V111.774Z" fill="black"/>
<path d="M77.6213 111.774H73.3633V115.839H77.6213V111.774Z" fill="black"/>
<path d="M60.5891 111.774H56.331V115.839H60.5891V111.774Z" fill="black"/>
</svg>
